<svg width="31" height="30" viewBox="0 0 31 30" fill="none" xmlns="http://www.w3.org/2000/svg">
<path d="M17.0625 7.31279V13.9352L22.5652 17.2365C22.8423 17.4029 23.042 17.6727 23.1203 17.9864C23.1986 18.3001 23.149 18.632 22.9826 18.9092C22.8161 19.1864 22.5464 19.3861 22.2327 19.4643C21.919 19.5426 21.587 19.4931 21.3098 19.3266L15.2161 15.6704C15.0357 15.562 14.8865 15.4088 14.7829 15.2257C14.6793 15.0425 14.6249 14.8357 14.625 14.6253V7.31279C14.625 6.98956 14.7534 6.67956 14.982 6.451C15.2105 6.22244 15.5205 6.09404 15.8438 6.09404C16.167 6.09404 16.477 6.22244 16.7055 6.451C16.9341 6.67956 17.0625 6.98956 17.0625 7.31279ZM15.8438 0.000289251C13.9212 -0.00449975 12.0167 0.37206 10.2406 1.10817C8.46454 1.84429 6.85208 2.92534 5.49656 4.28877C4.38902 5.41002 3.40488 6.48861 2.4375 7.61748V4.87529C2.4375 4.55206 2.3091 4.24206 2.08054 4.0135C1.85198 3.78494 1.54198 3.65654 1.21875 3.65654C0.895517 3.65654 0.585523 3.78494 0.356964 4.0135C0.128404 4.24206 0 4.55206 0 4.87529V10.969C0 11.2923 0.128404 11.6023 0.356964 11.8308C0.585523 12.0594 0.895517 12.1878 1.21875 12.1878H7.3125C7.63573 12.1878 7.94573 12.0594 8.17429 11.8308C8.40285 11.6023 8.53125 11.2923 8.53125 10.969C8.53125 10.6458 8.40285 10.3358 8.17429 10.1073C7.94573 9.87869 7.63573 9.75029 7.3125 9.75029H3.80859C4.89785 8.46756 5.98254 7.25947 7.21957 6.0072C8.91341 4.31337 11.0688 3.15626 13.4166 2.68044C15.7643 2.20462 18.2001 2.4312 20.4198 3.33187C22.6395 4.23254 24.5445 5.76736 25.8969 7.74454C27.2493 9.72173 27.989 12.0536 28.0236 14.4488C28.0583 16.844 27.3863 19.1963 26.0917 21.2118C24.7971 23.2272 22.9373 24.8165 20.7446 25.781C18.5519 26.7455 16.1236 27.0425 13.7631 26.6348C11.4026 26.2271 9.21459 25.1328 7.47246 23.4886C7.35603 23.3786 7.21906 23.2926 7.06938 23.2355C6.9197 23.1784 6.76024 23.1513 6.6001 23.1559C6.43996 23.1604 6.28228 23.1964 6.13607 23.2619C5.98985 23.3273 5.85796 23.421 5.74793 23.5374C5.6379 23.6538 5.55187 23.7908 5.49477 23.9405C5.43767 24.0902 5.41062 24.2496 5.41514 24.4098C5.41967 24.5699 5.45569 24.7276 5.52116 24.8738C5.58662 25.02 5.68024 25.1519 5.79668 25.2619C7.53256 26.9 9.64298 28.0884 11.9438 28.7233C14.2445 29.3582 16.6657 29.4204 18.9961 28.9044C21.3264 28.3884 23.495 27.3099 25.3127 25.763C27.1303 24.2162 28.5418 22.248 29.4239 20.0302C30.3059 17.8124 30.6318 15.4124 30.373 13.0397C30.1143 10.667 29.2787 8.39365 27.9393 6.41812C26.5999 4.4426 24.7974 2.8249 22.689 1.70621C20.5806 0.58752 18.2305 0.00184274 15.8438 0.000289251Z" fill="#CE181E"/>
</svg>
